<svg width="248" height="145" viewBox="0 0 248 145" fill="none" xmlns="http://www.w3.org/2000/svg">
<mask id="mask0_32_83" style="mask-type:alpha" maskUnits="userSpaceOnUse" x="0" y="0" width="248" height="145">
<rect width="248" height="145" fill="#D9D9D9"/>
</mask>
<g mask="url(#mask0_32_83)">
<path d="M27.5996 34.3145L34.8867 36.625C33.7695 40.6875 31.9076 43.709 29.3008 45.6895C26.7109 47.653 23.4186 48.6348 19.4238 48.6348C14.4811 48.6348 10.4186 46.9505 7.23633 43.582C4.05404 40.1966 2.46289 35.5755 2.46289 29.7188C2.46289 23.5234 4.0625 18.7161 7.26172 15.2969C10.4609 11.8607 14.6673 10.1426 19.8809 10.1426C24.4342 10.1426 28.1328 11.4883 30.9766 14.1797C32.6693 15.7708 33.9388 18.056 34.7852 21.0352L27.3457 22.8125C26.9056 20.8828 25.9831 19.3594 24.5781 18.2422C23.1901 17.125 21.4974 16.5664 19.5 16.5664C16.7409 16.5664 14.498 17.5566 12.7715 19.5371C11.0618 21.5176 10.207 24.7253 10.207 29.1602C10.207 33.8659 11.0534 37.2174 12.7461 39.2148C14.4388 41.2122 16.6393 42.2109 19.3477 42.2109C21.3451 42.2109 23.0632 41.5762 24.502 40.3066C25.9408 39.0371 26.9733 37.0397 27.5996 34.3145ZM41.3867 48V10.7773H57.2051C61.1829 10.7773 64.069 11.1159 65.8633 11.793C67.6745 12.4531 69.1217 13.638 70.2051 15.3477C71.2884 17.0573 71.8301 19.0124 71.8301 21.2129C71.8301 24.0059 71.0091 26.3164 69.3672 28.1445C67.7253 29.9557 65.2708 31.0983 62.0039 31.5723C63.6289 32.5202 64.9661 33.5612 66.0156 34.6953C67.082 35.8294 68.5124 37.8438 70.3066 40.7383L74.8516 48H65.8633L60.4297 39.9004C58.5 37.0059 57.1797 35.1862 56.4688 34.4414C55.7578 33.6797 55.0046 33.1634 54.209 32.8926C53.4134 32.6048 52.1523 32.4609 50.4258 32.4609H48.9023V48H41.3867ZM48.9023 26.5195H54.4629C58.0684 26.5195 60.3197 26.3672 61.2168 26.0625C62.1139 25.7578 62.8164 25.2331 63.3242 24.4883C63.832 23.7435 64.0859 22.8125 64.0859 21.6953C64.0859 20.4427 63.7474 19.4355 63.0703 18.6738C62.4102 17.8952 61.4707 17.4043 60.252 17.2012C59.6426 17.1165 57.8145 17.0742 54.7676 17.0742H48.9023V26.5195ZM78.9395 48V10.7773H106.539V17.0742H86.4551V25.3262H105.143V31.5977H86.4551V41.7285H107.25V48H78.9395ZM147.189 48H139.014L135.764 39.5449H120.885L117.812 48H109.84L124.338 10.7773H132.285L147.189 48ZM133.352 33.2734L128.223 19.4609L123.195 33.2734H133.352ZM155.721 48V17.0742H144.676V10.7773H174.256V17.0742H163.236V48H155.721ZM179.131 48V10.7773H206.73V17.0742H186.646V25.3262H205.334V31.5977H186.646V41.7285H207.441V48H179.131ZM213.789 10.7773H227.525C230.623 10.7773 232.984 11.0143 234.609 11.4883C236.793 12.1315 238.663 13.2741 240.221 14.916C241.778 16.5579 242.963 18.5723 243.775 20.959C244.588 23.3288 244.994 26.2572 244.994 29.7441C244.994 32.8079 244.613 35.4486 243.852 37.666C242.921 40.3743 241.592 42.5664 239.865 44.2422C238.562 45.5117 236.801 46.502 234.584 47.2129C232.925 47.7376 230.708 48 227.932 48H213.789V10.7773ZM221.305 17.0742V41.7285H226.916C229.015 41.7285 230.53 41.61 231.461 41.373C232.68 41.0684 233.687 40.5521 234.482 39.8242C235.295 39.0964 235.955 37.903 236.463 36.2441C236.971 34.5684 237.225 32.2917 237.225 29.4141C237.225 26.5365 236.971 24.3275 236.463 22.7871C235.955 21.2467 235.244 20.0449 234.33 19.1816C233.416 18.3184 232.257 17.7344 230.852 17.4297C229.802 17.1927 227.745 17.0742 224.682 17.0742H221.305Z" fill="white"/>
<path d="M54.8086 83.7773H69.6875C72.6328 83.7773 74.8249 83.9043 76.2637 84.1582C77.7194 84.3952 79.0143 84.903 80.1484 85.6816C81.2995 86.4603 82.2559 87.5013 83.0176 88.8047C83.7793 90.0911 84.1602 91.5384 84.1602 93.1465C84.1602 94.89 83.6862 96.4896 82.7383 97.9453C81.8073 99.401 80.5378 100.493 78.9297 101.221C81.1979 101.881 82.9414 103.007 84.1602 104.598C85.3789 106.189 85.9883 108.059 85.9883 110.209C85.9883 111.902 85.5905 113.552 84.7949 115.16C84.0163 116.751 82.9414 118.029 81.5703 118.994C80.2161 119.942 78.5404 120.526 76.543 120.746C75.2904 120.882 72.2689 120.966 67.4785 121H54.8086V83.7773ZM62.3242 89.9727V98.5801H67.25C70.1784 98.5801 71.998 98.5378 72.709 98.4531C73.9954 98.3008 75.0026 97.8607 75.7305 97.1328C76.4753 96.388 76.8477 95.4147 76.8477 94.2129C76.8477 93.0618 76.526 92.1309 75.8828 91.4199C75.2565 90.6921 74.3171 90.252 73.0645 90.0996C72.3197 90.015 70.1784 89.9727 66.6406 89.9727H62.3242ZM62.3242 104.775V114.729H69.2812C71.9896 114.729 73.7077 114.652 74.4355 114.5C75.5527 114.297 76.4583 113.806 77.1523 113.027C77.8633 112.232 78.2188 111.174 78.2188 109.854C78.2188 108.736 77.9479 107.788 77.4062 107.01C76.8646 106.231 76.0775 105.664 75.0449 105.309C74.0293 104.953 71.8118 104.775 68.3926 104.775H62.3242ZM102.137 121V105.334L88.502 83.7773H97.3125L106.072 98.5039L114.654 83.7773H123.312L109.627 105.385V121H102.137ZM140.629 121V83.7773H147.941L163.176 108.635V83.7773H170.158V121H162.617L147.611 96.7266V121H140.629ZM187.906 121V105.334L174.271 83.7773H183.082L191.842 98.5039L200.424 83.7773H209.082L195.396 105.385V121H187.906Z" fill="white"/>
<path d="M8 84H30V95.1L22.6667 102.5L30 109.9V121H8V109.9L15.3333 102.5L8 95.1V84ZM26.3333 110.825L19 103.425L11.6667 110.825V117.3H26.3333V110.825ZM19 101.575L26.3333 94.175V87.7H11.6667V94.175L19 101.575ZM15.3333 91.4H22.6667V92.7875L19 96.4875L15.3333 92.7875V91.4Z" fill="white"/>
</g>
</svg>
