<svg width="243" height="98" viewBox="0 0 243 98" fill="none" xmlns="http://www.w3.org/2000/svg">
<g id="Group 1">
<g id="CREATED">
<path class="str1" d="M211.789 0.777344H225.525C228.623 0.777344 230.984 1.01432 232.609 1.48828C234.793 2.13151 236.663 3.27409 238.221 4.91602C239.778 6.55794 240.963 8.57227 241.775 10.959C242.588 13.3288 242.994 16.2572 242.994 19.7441C242.994 22.8079 242.613 25.4486 241.852 27.666C240.921 30.3743 239.592 32.5664 237.865 34.2422C236.562 35.5117 234.801 36.502 232.584 37.2129C230.925 37.7376 228.708 38 225.932 38H211.789V0.777344ZM219.305 7.07422V31.7285H224.916C227.015 31.7285 228.53 31.61 229.461 31.373C230.68 31.0684 231.687 30.5521 232.482 29.8242C233.295 29.0964 233.955 27.903 234.463 26.2441C234.971 24.5684 235.225 22.2917 235.225 19.4141C235.225 16.5365 234.971 14.3275 234.463 12.7871C233.955 11.2467 233.244 10.0449 232.33 9.18164C231.416 8.31836 230.257 7.73438 228.852 7.42969C227.802 7.19271 225.745 7.07422 222.682 7.07422H219.305Z" fill="white"/>
<path class="str1" d="M177.131 38V0.777344H204.73V7.07422H184.646V15.3262H203.334V21.5977H184.646V31.7285H205.441V38H177.131Z" fill="white"/>
<path class="str1" d="M153.721 38V7.07422H142.676V0.777344H172.256V7.07422H161.236V38H153.721Z" fill="white"/>
<path class="str1" d="M145.189 38H137.014L133.764 29.5449H118.885L115.812 38H107.84L122.338 0.777344H130.285L145.189 38ZM131.352 23.2734L126.223 9.46094L121.195 23.2734H131.352Z" fill="white"/>
<path class="str1" d="M76.9395 38V0.777344H104.539V7.07422H84.4551V15.3262H103.143V21.5977H84.4551V31.7285H105.25V38H76.9395Z" fill="white"/>
<path class="str1" d="M39.3867 38V0.777344H55.2051C59.1829 0.777344 62.069 1.11589 63.8633 1.79297C65.6745 2.45312 67.1217 3.63802 68.2051 5.34766C69.2884 7.05729 69.8301 9.01237 69.8301 11.2129C69.8301 14.0059 69.0091 16.3164 67.3672 18.1445C65.7253 19.9557 63.2708 21.0983 60.0039 21.5723C61.6289 22.5202 62.9661 23.5612 64.0156 24.6953C65.082 25.8294 66.5124 27.8438 68.3066 30.7383L72.8516 38H63.8633L58.4297 29.9004C56.5 27.0059 55.1797 25.1862 54.4688 24.4414C53.7578 23.6797 53.0046 23.1634 52.209 22.8926C51.4134 22.6048 50.1523 22.4609 48.4258 22.4609H46.9023V38H39.3867ZM46.9023 16.5195H52.4629C56.0684 16.5195 58.3197 16.3672 59.2168 16.0625C60.1139 15.7578 60.8164 15.2331 61.3242 14.4883C61.832 13.7435 62.0859 12.8125 62.0859 11.6953C62.0859 10.4427 61.7474 9.43555 61.0703 8.67383C60.4102 7.89518 59.4707 7.4043 58.252 7.20117C57.6426 7.11654 55.8145 7.07422 52.7676 7.07422H46.9023V16.5195Z" fill="white"/>
<path class="str1" d="M25.5996 24.3145L32.8867 26.625C31.7695 30.6875 29.9076 33.709 27.3008 35.6895C24.7109 37.653 21.4186 38.6348 17.4238 38.6348C12.4811 38.6348 8.41862 36.9505 5.23633 33.582C2.05404 30.1966 0.462891 25.5755 0.462891 19.7188C0.462891 13.5234 2.0625 8.71615 5.26172 5.29688C8.46094 1.86068 12.6673 0.142578 17.8809 0.142578C22.4342 0.142578 26.1328 1.48828 28.9766 4.17969C30.6693 5.77083 31.9388 8.05599 32.7852 11.0352L25.3457 12.8125C24.9056 10.8828 23.9831 9.35938 22.5781 8.24219C21.1901 7.125 19.4974 6.56641 17.5 6.56641C14.7409 6.56641 12.498 7.55664 10.7715 9.53711C9.06185 11.5176 8.20703 14.7253 8.20703 19.1602C8.20703 23.8659 9.05339 27.2174 10.7461 29.2148C12.4388 31.2122 14.6393 32.2109 17.3477 32.2109C19.3451 32.2109 21.0632 31.5762 22.502 30.3066C23.9408 29.0371 24.9733 27.0397 25.5996 24.3145Z" fill="white"/>
</g>
<g id="BY NY">
<path class="str1" d="M185.906 98V82.334L172.271 60.7773H181.082L189.842 75.5039L198.424 60.7773H207.082L193.396 82.3848V98H185.906Z" fill="white"/>
<path class="str1" d="M138.629 98V60.7773H145.941L161.176 85.6348V60.7773H168.158V98H160.617L145.611 73.7266V98H138.629Z" fill="white"/>
<path class="str1" d="M100.137 98V82.334L86.502 60.7773H95.3125L104.072 75.5039L112.654 60.7773H121.312L107.627 82.3848V98H100.137Z" fill="white"/>
<path class="str1" d="M52.8086 60.7773H67.6875C70.6328 60.7773 72.8249 60.9043 74.2637 61.1582C75.7194 61.3952 77.0143 61.903 78.1484 62.6816C79.2995 63.4603 80.2559 64.5013 81.0176 65.8047C81.7793 67.0911 82.1602 68.5384 82.1602 70.1465C82.1602 71.89 81.6862 73.4896 80.7383 74.9453C79.8073 76.401 78.5378 77.4928 76.9297 78.2207C79.1979 78.8809 80.9414 80.0065 82.1602 81.5977C83.3789 83.1888 83.9883 85.0592 83.9883 87.209C83.9883 88.9017 83.5905 90.5521 82.7949 92.1602C82.0163 93.7513 80.9414 95.0293 79.5703 95.9941C78.2161 96.9421 76.5404 97.526 74.543 97.7461C73.2904 97.8815 70.2689 97.9661 65.4785 98H52.8086V60.7773ZM60.3242 66.9727V75.5801H65.25C68.1784 75.5801 69.998 75.5378 70.709 75.4531C71.9954 75.3008 73.0026 74.8607 73.7305 74.1328C74.4753 73.388 74.8477 72.4147 74.8477 71.2129C74.8477 70.0618 74.526 69.1309 73.8828 68.4199C73.2565 67.6921 72.3171 67.252 71.0645 67.0996C70.3197 67.015 68.1784 66.9727 64.6406 66.9727H60.3242ZM60.3242 81.7754V91.7285H67.2812C69.9896 91.7285 71.7077 91.6523 72.4355 91.5C73.5527 91.2969 74.4583 90.806 75.1523 90.0273C75.8633 89.2318 76.2188 88.1738 76.2188 86.8535C76.2188 85.7363 75.9479 84.7884 75.4062 84.0098C74.8646 83.2311 74.0775 82.6641 73.0449 82.3086C72.0293 81.9531 69.8118 81.7754 66.3926 81.7754H60.3242Z" fill="white"/>
</g>
<path id="hourglass" d="M6 61H28V72.1L20.6667 79.5L28 86.9V98H6V86.9L13.3333 79.5L6 72.1V61ZM24.3333 87.825L17 80.425L9.66667 87.825V94.3H24.3333V87.825ZM17 78.575L24.3333 71.175V64.7H9.66667V71.175L17 78.575ZM13.3333 68.4H20.6667V69.7875L17 73.4875L13.3333 69.7875V68.4Z" fill="white"/>
</g>
</svg>
